<svg width="40" height="40" viewBox="0 0 40 40" fill="none" xmlns="http://www.w3.org/2000/svg">
<path d="M6.875 3.75C6.52983 3.75 6.25 4.02983 6.25 4.375V33.125C6.25 33.4702 6.52983 33.75 6.875 33.75H13C14.0355 33.75 15 34.4645 15 35.5C15 36.5355 14.0355 37.5 13 37.5H6.875C4.45875 37.5 2.5 35.5412 2.5 33.125V4.375C2.5 1.95876 4.45875 0 6.875 0H28.125C30.5413 0 32.5 1.95876 32.5 4.375V18C32.5 19.0355 31.5355 20 30.5 20C29.4645 20 28.75 19.0355 28.75 18V4.375C28.75 4.02983 28.4702 3.75 28.125 3.75H6.875Z" fill="#605BFF"/>
<path d="M10 11.875C10 10.8395 10.8395 10 11.875 10H23.125C24.1605 10 25 10.8395 25 11.875C25 12.9105 24.1605 13.75 23.125 13.75H11.875C10.8395 13.75 10 12.9105 10 11.875Z" fill="#605BFF"/>
<path d="M11.875 17.5C10.8395 17.5 10 18.3395 10 19.375C10 20.4105 10.8395 21.25 11.875 21.25H16.875C17.9105 21.25 18.75 20.4105 18.75 19.375C18.75 18.3395 17.9105 17.5 16.875 17.5H11.875Z" fill="#605BFF"/>
<path d="M26.5336 37.2199C26.1823 37.442 25.8886 37.6142 25.6812 37.7317C25.57 37.7946 25.4583 37.8568 25.345 37.9159C25.2369 37.9718 25.1185 37.9998 25 37.9998C24.8815 37.9998 24.7631 37.9718 24.655 37.9159C24.5416 37.857 24.43 37.7946 24.3188 37.7317C24.1114 37.6142 23.8177 37.442 23.4664 37.2199C22.7654 36.7767 21.8272 36.13 20.8853 35.3181C19.0446 33.7312 17 31.3503 17 28.5C17 25.8358 19.0858 24 21.25 24C22.7974 24 24.1529 24.8015 25 26.0199C25.8471 24.8015 27.2026 24 28.75 24C30.9142 24 33 25.8358 33 28.5C33 31.3503 30.9554 33.7312 29.1147 35.3181C28.1728 36.13 27.2346 36.7767 26.5336 37.2199Z" fill="#605BFF"/>
</svg>
