<?xml version="1.0" encoding="utf-8"?>
<!-- Generator: Adobe Illustrator 27.5.0, SVG Export Plug-In . SVG Version: 6.00 Build 0)  -->
<svg version="1.1" xmlns="http://www.w3.org/2000/svg" xmlns:xlink="http://www.w3.org/1999/xlink" x="0px" y="0px"
	 viewBox="0 0 3710 3710" style="enable-background:new 0 0 3710 3710;" xml:space="preserve">
<g id="Background">
	<g>
		<g>
			<rect style="fill:#FFFFFF;" width="3710" height="3710"/>
		</g>
	</g>
</g>
<g id="Illustration">
	<g>
		<path style="fill:#F4F7FA;" d="M3199.387,1631.662c-75.087-491.478-382.942-1095.293-991.145-1158.484
			c0,0-461.776-56.168-916.985,28.96c-270.167,50.523-507.064,200.921-656.963,417.08
			c-149.9,216.159-199.971,479.735-139.204,731.023c39.468,163.213,66.139,332.133,58.819,499.844
			c-12.739,291.886-5.41,564.341,277.859,738.414c252.926,155.428,571.238,292.509,874.912,316.519
			c206.375,16.317,437.811-10.088,636.717-63.817C3357.069,2867.378,3274.473,2123.14,3199.387,1631.662z"/>
		<g>
			<g>
				<path style="fill:#D8DEE8;" d="M1423.768,2325.413c160.149-18.695,317.467-153.847,357.758-307.525
					c73.248-279.444-235.276-359.637-309.845-584.438c-60.643-182.82,11.243-384.518-56.461-566.11
					c-59.556-159.738-220.66-285.021-393.694-287.147c-149.208-1.832-300.183,99.211-354.179,241.391
					c-40.227,105.926-44.26,265.776-7.572,373.851c29.98,88.315,74.355,169.965,140.837,236.102
					c54.088,53.807,126.146,93.6,164.067,161.871c71.842,129.342,23.542,298.623,50.683,436.522
					c18.967,96.37,88.797,197.803,173.787,247.036C1263.056,2319.781,1344.469,2334.669,1423.768,2325.413z"/>
				<g style="opacity:0.8;">
					<path style="fill:#FFFFFF;" d="M1433.778,2280.491c-2.272-0.29-4.139-2.096-4.413-4.473
						c-0.222-1.931-22.907-196.048-85.711-452.567c-57.93-236.611-162.812-576.214-333.497-850.399
						c-1.486-2.39-0.755-5.531,1.632-7.017c2.392-1.49,5.53-0.759,7.017,1.632c171.422,275.369,276.671,616.131,334.781,853.507
						c62.939,257.111,85.677,451.746,85.899,453.682c0.32,2.796-1.685,5.322-4.48,5.642
						C1434.59,2280.546,1434.176,2280.542,1433.778,2280.491z"/>
				</g>
			</g>
			<g>
				<path style="fill:#BFC8D6;" d="M1129.564,1537.245c-276.864-317.796-554.653-227.205-606.461-92.783
					c-51.305,133.119-135.468,850.062,785.77,768.85c16.385-1.444,29.504-14.251,31.294-30.602
					C1350.001,2092.832,1360.14,1801.911,1129.564,1537.245z"/>
				<g style="opacity:0.8;">
					<g>
						<path style="fill:#FFFFFF;" d="M1311.62,2185.102c-1.77-0.226-3.367-1.374-4.084-3.146
							c-0.34-0.844-35.185-85.834-123.982-202.78c-81.94-107.917-227.897-265.894-457.909-405.653
							c-2.405-1.46-3.17-4.594-1.708-6.998c1.46-2.405,4.592-3.17,6.998-1.708c231.563,140.701,378.508,299.834,461.003,408.553
							c89.5,117.95,124.7,203.917,125.046,204.77c1.053,2.608-0.207,5.577-2.815,6.63
							C1313.33,2185.109,1312.455,2185.208,1311.62,2185.102z"/>
					</g>
					<g>
						<path style="fill:#FFFFFF;" d="M1082.194,1858.041c-0.469-0.06-0.937-0.187-1.393-0.385c-2.578-1.123-3.757-4.125-2.635-6.704
							c0.672-1.543,65.645-155.675-61.28-277.933c-2.026-1.95-2.086-5.176-0.134-7.202c1.951-2.028,5.176-2.086,7.202-0.134
							c69.039,66.501,82.663,141.614,81.933,192.916c-0.79,55.51-17.665,94.782-18.383,96.428
							C1086.578,1857.147,1084.381,1858.32,1082.194,1858.041z"/>
					</g>
					<g>
						<path style="fill:#FFFFFF;" d="M817.91,1790.818c-33.657-4.294-72.425-16.913-114.487-44.209
							c-2.359-1.531-3.031-4.686-1.5-7.047c1.532-2.361,4.688-3.028,7.047-1.5c149.418,96.973,256.666,4.231,257.732,3.283
							c2.104-1.87,5.322-1.681,7.192,0.419c1.87,2.103,1.683,5.323-0.419,7.192c-1.156,1.029-28.845,25.312-76.179,37.301
							C876.267,1791.583,849.312,1794.824,817.91,1790.818z"/>
					</g>
					<g>
						<path style="fill:#FFFFFF;" d="M1051.451,2053.423c-33.657-4.294-72.425-16.914-114.487-44.209
							c-2.359-1.531-3.031-4.686-1.5-7.047c1.531-2.359,4.686-3.031,7.047-1.5c149.416,96.973,256.666,4.229,257.731,3.283
							c2.104-1.87,5.321-1.68,7.192,0.419c1.87,2.103,1.683,5.323-0.419,7.192c-1.156,1.029-28.845,25.312-76.179,37.301
							C1109.808,2054.188,1082.853,2057.429,1051.451,2053.423z"/>
					</g>
				</g>
			</g>
		</g>
		<g>
			
				<linearGradient id="SVGID_1_" gradientUnits="userSpaceOnUse" x1="391.8765" y1="1013.9996" x2="699.3154" y2="1321.4385" gradientTransform="matrix(1.124 0.0899 -0.0842 1.0536 102.4328 -86.7334)">
				<stop  offset="0" style="stop-color:#311944"/>
				<stop  offset="1" style="stop-color:#893976"/>
			</linearGradient>
			<path style="fill:url(#SVGID_1_);" d="M1254.436,928.053c0,0-151.867,40.021-227.079,168.76
				c-75.212,128.74-306.444,1048.951-305.644,1096.942c0.801,47.991-44.768,186.972,412.899,233.077l8.978-112.301l-96.54-29.072
				c-45.405-13.673-72.417-57.609-62.13-101.058l135.831-573.713L1254.436,928.053z"/>
			
				<linearGradient id="SVGID_00000155111042980881665790000014332240136261010816_" gradientUnits="userSpaceOnUse" x1="415.5594" y1="990.3143" x2="722.999" y2="1297.7539" gradientTransform="matrix(1.124 0.0899 -0.0842 1.0536 102.4328 -86.7334)">
				<stop  offset="0" style="stop-color:#311944"/>
				<stop  offset="1" style="stop-color:#893976"/>
			</linearGradient>
			<path style="opacity:0.3;fill:url(#SVGID_00000155111042980881665790000014332240136261010816_);" d="M1047.051,2285.46
				c-45.405-13.674-72.417-57.61-62.13-101.059l135.831-573.713l133.685-682.636c0,0-6.632,1.762-17.703,5.658
				c-105.182,64.564-156.185,133.917-183.457,186.909c-72.608,141.086-6.26,222.536-73.119,450.574
				c-30.792,105.02-45.339,89.368-108.956,260.794c-78.377,211.201-117.565,316.802-82.453,393.319
				c54.306,118.349,236.258,156.075,348.529,168.194l6.314-78.97L1047.051,2285.46z"/>
			
				<linearGradient id="SVGID_00000084488311470292101730000001180140006334539155_" gradientUnits="userSpaceOnUse" x1="1464.0134" y1="807.2494" x2="1141.5219" y2="498.423" gradientTransform="matrix(1 0 0 1 129.3117 0)">
				<stop  offset="0" style="stop-color:#311944"/>
				<stop  offset="1" style="stop-color:#893976"/>
			</linearGradient>
			<path style="fill:url(#SVGID_00000084488311470292101730000001180140006334539155_);" d="M1466.112,965.069l-56.838-175.945
				c-10.949-33.897-4.778-71.186,16.506-99.752c21.254-28.522,55.249-45.058,90.701-44.277
				c183.609,4.117,214.612,21.939,226.284,28.648c19.791,11.376,47.594,39.145,87.22,153.854
				c20.463,59.238,34.455,113.984,35.039,116.285l-67.537,17.188c-27.425-107.687-69.276-213.749-89.56-226.972
				c-2.686-1.539-31.817-15.715-193.007-19.328c-13.229-0.34-25.343,5.623-33.256,16.244c-7.947,10.665-10.161,24.036-6.073,36.689
				l56.838,175.945L1466.112,965.069z"/>
			
				<linearGradient id="SVGID_00000119832349100637067160000011271724770314838448_" gradientUnits="userSpaceOnUse" x1="1310.3281" y1="209.5788" x2="1470.2002" y2="683.0456" gradientTransform="matrix(1 0 0 1 129.3117 0)">
				<stop  offset="0" style="stop-color:#311944"/>
				<stop  offset="1" style="stop-color:#893976"/>
			</linearGradient>
			<path style="fill:url(#SVGID_00000119832349100637067160000011271724770314838448_);" d="M1489.579,965.069l-56.838-175.945
				c-10.949-33.897-4.778-71.186,16.506-99.752c21.254-28.522,55.249-45.058,90.701-44.277
				c183.609,4.117,214.612,21.939,226.284,28.648c19.791,11.376,47.594,39.145,87.219,153.854
				c20.463,59.238,34.455,113.984,35.04,116.285l-67.537,17.188c-27.426-107.687-69.276-213.749-89.56-226.972
				c-2.686-1.539-31.817-15.715-193.007-19.328c-13.229-0.34-25.344,5.623-33.257,16.244c-7.946,10.665-10.161,24.036-6.073,36.689
				l56.838,175.945L1489.579,965.069z"/>
			
				<linearGradient id="SVGID_00000051354446980435901530000004913108096530319024_" gradientUnits="userSpaceOnUse" x1="2255.4915" y1="2395.7705" x2="595.2067" y2="772.3782" gradientTransform="matrix(1 0 0 1 129.3117 0)">
				<stop  offset="0" style="stop-color:#FF9085"/>
				<stop  offset="1" style="stop-color:#FB6FBB"/>
			</linearGradient>
			<path style="fill:url(#SVGID_00000051354446980435901530000004913108096530319024_);" d="M1139.202,905.34L1139.202,905.34
				c-62.937,62.937-97.346,148.908-95.212,237.889l-15.245,1133.638c-1.186,88.148,54.195,167.154,137.462,196.104l113.443,39.441
				c85.794,29.828,176.62,42.476,267.3,37.221l726.972-42.124c104.096-6.032,184.649-93.536,182.065-197.775l-8.699-350.779
				c-2.558-103.129-12.423-748.318-122.734-907.918c-37.797-54.685-137.45-153.414-214.963-156.51l-855.382-34.158
				C1211.278,858.654,1169.583,874.958,1139.202,905.34z"/>
			
				<linearGradient id="SVGID_00000103968231366494911560000011447077866820920236_" gradientUnits="userSpaceOnUse" x1="1819.292" y1="1824.0706" x2="2604.3403" y2="2359.0503" gradientTransform="matrix(1 0 0 1 129.3117 0)">
				<stop  offset="0" style="stop-color:#FF9085"/>
				<stop  offset="1" style="stop-color:#FB6FBB"/>
			</linearGradient>
			<path style="fill:url(#SVGID_00000103968231366494911560000011447077866820920236_);" d="M2245.083,1050.182l-725.12-17.389
				c-51.289-1.23-93.314,40.431-92.531,91.728l8.34,1276.341c1.088,71.308,60.376,127.902,131.658,125.675l713.074-44.137
				c85.245-2.664,152.925-72.561,152.864-157.847c-0.228-318.453-12.884-1038.748-119.476-1233.061
				C2300.125,1066.395,2273.698,1050.868,2245.083,1050.182z"/>
			
				<linearGradient id="SVGID_00000166652720223812025560000000692007304281347456_" gradientUnits="userSpaceOnUse" x1="1821.5999" y1="1816.6599" x2="2562.8684" y2="2321.8054" gradientTransform="matrix(1 0 0 1 129.3117 0)">
				<stop  offset="0" style="stop-color:#FF9085"/>
				<stop  offset="1" style="stop-color:#FB6FBB"/>
			</linearGradient>
			<path style="fill:url(#SVGID_00000166652720223812025560000000692007304281347456_);" d="M2230.858,1085.929l-684.683-16.419
				c-48.428-1.161-88.11,38.176-87.371,86.612l7.875,1205.164c1.027,67.331,57.009,120.769,124.316,118.666l673.307-41.676
				c80.492-2.515,144.397-68.514,144.339-149.045c-0.216-300.693-12.166-980.82-112.813-1164.297
				C2282.829,1101.238,2257.877,1086.577,2230.858,1085.929z"/>
			
				<linearGradient id="SVGID_00000064347805910356501770000007164776103551438764_" gradientUnits="userSpaceOnUse" x1="1737.6395" y1="1939.8687" x2="2478.9077" y2="2445.0139" gradientTransform="matrix(1 0 0 1 129.3117 0)">
				<stop  offset="0" style="stop-color:#FF9085"/>
				<stop  offset="1" style="stop-color:#FB6FBB"/>
			</linearGradient>
			<path style="opacity:0.3;fill:url(#SVGID_00000064347805910356501770000007164776103551438764_);" d="M2024.52,2282.927
				c-41.268-119.208,123.847-258.827,53.293-385.35c-57.297-102.75-196.622-65.238-258.266-184.476
				c-45.616-88.235,18.28-132.755-24.597-250.068c-46.069-126.048-142.349-136.25-155.78-225.471
				c-5.842-38.808,4.058-92.617,65.707-164.247l-158.702-3.806c-48.428-1.161-88.11,38.176-87.371,86.612l7.875,1205.164
				c1.027,67.332,57.009,120.769,124.315,118.667l673.308-41.677c17.798-0.556,34.779-4.227,50.442-10.461
				C2122.801,2400.62,2045.94,2344.802,2024.52,2282.927z"/>
			
				<linearGradient id="SVGID_00000099631557376389262740000001860753183450182822_" gradientUnits="userSpaceOnUse" x1="2013.5126" y1="2362.3748" x2="1882.3295" y2="2198.3955" gradientTransform="matrix(1 0 0 1 129.3117 0)">
				<stop  offset="0.0036" style="stop-color:#E38DDD"/>
				<stop  offset="1" style="stop-color:#9571F6"/>
			</linearGradient>
			<path style="fill:url(#SVGID_00000099631557376389262740000001860753183450182822_);" d="M1551.24,1927.51v491.474
				c0,45.344,41.369,57.65,66.672,56.776l727.671-37.892c24.487-0.846,43.74-21.228,43.191-45.724l14.916-502.766
				c-0.546-24.315-52.579-109.695-148.233-100.487H1689.86C1613.302,1788.891,1551.24,1850.953,1551.24,1927.51z"/>
			
				<linearGradient id="SVGID_00000107555720786844408910000015239990328663970490_" gradientUnits="userSpaceOnUse" x1="1613.9528" y1="1864.5282" x2="2068.9714" y2="2405.6311" gradientTransform="matrix(1 0 0 1 129.3117 0)">
				<stop  offset="0.0036" style="stop-color:#E38DDD"/>
				<stop  offset="1" style="stop-color:#9571F6"/>
			</linearGradient>
			<path style="fill:url(#SVGID_00000107555720786844408910000015239990328663970490_);" d="M1586.085,1939.228v493.677
				c0,25.318,20.988,45.594,46.291,44.72l748.052-25.836c24.487-0.846,43.74-21.228,43.191-45.724l-10.547-469.898
				c-1.664-74.129-62.235-133.356-136.383-133.356h-554.187C1647.161,1802.811,1586.085,1863.887,1586.085,1939.228z"/>
			
				<linearGradient id="SVGID_00000076586574121100576280000016524828652097936811_" gradientUnits="userSpaceOnUse" x1="2044.7653" y1="2611.2869" x2="384.4764" y2="987.8906" gradientTransform="matrix(1 0 0 1 129.3117 0)">
				<stop  offset="0" style="stop-color:#FF9085"/>
				<stop  offset="1" style="stop-color:#FB6FBB"/>
			</linearGradient>
			<path style="opacity:0.3;fill:url(#SVGID_00000076586574121100576280000016524828652097936811_);" d="M1344.009,2467.403
				c-68.736-99.487-75.056-203.561-77.89-262.366c-9.657-200.394,86.672-232.339,81.989-389.45
				c-5.765-193.408-153.282-196.515-209.073-455.041c-15.405-71.386-54.767-253.783,49.194-405.847
				c27.257-39.869,59.333-70.266,90.391-93.356l-24.411-0.975c-42.931-1.714-84.626,14.59-115.007,44.971h0
				c-62.937,62.937-97.346,148.908-95.212,237.889l-15.245,1133.638c-1.185,88.148,54.196,167.154,137.463,196.104l113.443,39.441
				c43.488,15.119,88.271,25.805,133.67,32.001C1388.552,2523.006,1364.897,2497.637,1344.009,2467.403z"/>
			
				<linearGradient id="SVGID_00000014611883649669024590000005728090054382798494_" gradientUnits="userSpaceOnUse" x1="1018.736" y1="792.7091" x2="1177.2488" y2="975.8188" gradientTransform="matrix(1 0 0 1 129.3117 0)">
				<stop  offset="0" style="stop-color:#311944"/>
				<stop  offset="1" style="stop-color:#893976"/>
			</linearGradient>
			<path style="opacity:0.3;fill:url(#SVGID_00000014611883649669024590000005728090054382798494_);" d="M2188.854,922.819
				l-770.871-14.757c-65.081-0.192-126.447,25.117-172.574,71.14c-46.125,46.023-71.529,107.255-71.529,172.414v758.259
				c0,10.189,8.259,18.448,18.448,18.448c10.189,0,18.448-8.259,18.448-18.448v-758.259c0-55.289,21.554-107.244,60.694-146.296
				c39.029-38.941,90.849-60.367,145.655-60.367c0.154,0,0.31,0,0.464,0l823.113,15.759
				C2224.197,946.672,2206.644,933.6,2188.854,922.819z"/>
			<g>
				
					<linearGradient id="SVGID_00000176024113443878139360000007398309805834118809_" gradientUnits="userSpaceOnUse" x1="1031.5988" y1="1962.533" x2="1153.7373" y2="2122.3032" gradientTransform="matrix(1 0 0 1 129.3117 0)">
					<stop  offset="0" style="stop-color:#311944"/>
					<stop  offset="1" style="stop-color:#893976"/>
				</linearGradient>
				<path style="fill:url(#SVGID_00000176024113443878139360000007398309805834118809_);" d="M1224.988,2048.875l-12.492-140.192
					c-0.974-10.929-10.13-19.306-21.102-19.306c-10.164,0-18.896,7.218-20.808,17.201l-26.47,138.235
					c-4.022,21.005,8.824,41.559,29.466,47.149C1201.042,2099.4,1227.514,2077.212,1224.988,2048.875z M1184.471,2071.804
					c-15.282,0-27.671-12.389-27.671-27.671c0-15.283,12.389-27.671,27.671-27.671c15.283,0,27.671,12.389,27.671,27.671
					C1212.142,2059.415,1199.754,2071.804,1184.471,2071.804z"/>
				
					<linearGradient id="SVGID_00000107581476197959044530000011227072790215924364_" gradientUnits="userSpaceOnUse" x1="925.7083" y1="1759.2975" x2="1083.4977" y2="2066.2935" gradientTransform="matrix(1 0 0 1 129.3117 0)">
					<stop  offset="0" style="stop-color:#311944"/>
					<stop  offset="1" style="stop-color:#893976"/>
				</linearGradient>
				<path style="fill:url(#SVGID_00000107581476197959044530000011227072790215924364_);" d="M1217.473,2048.875l-12.492-140.192
					c-0.974-10.929-10.13-19.306-21.102-19.306c-10.164,0-18.896,7.218-20.807,17.201l-26.471,138.235
					c-4.022,21.005,8.824,41.559,29.466,47.149C1193.527,2099.4,1219.998,2077.212,1217.473,2048.875z M1176.955,2071.804
					c-15.282,0-27.671-12.389-27.671-27.671c0-15.283,12.389-27.671,27.671-27.671c15.283,0,27.671,12.389,27.671,27.671
					C1204.627,2059.415,1192.238,2071.804,1176.955,2071.804z"/>
			</g>
			
				<linearGradient id="SVGID_00000169545595825500978830000011679557260987096968_" gradientUnits="userSpaceOnUse" x1="1911.7319" y1="2342.0422" x2="1900.8" y2="2251.8542" gradientTransform="matrix(1 0 0 1 129.3117 0)">
				<stop  offset="0" style="stop-color:#311944"/>
				<stop  offset="1" style="stop-color:#893976"/>
			</linearGradient>
			<path style="fill:url(#SVGID_00000169545595825500978830000011679557260987096968_);" d="M1635.065,1981.616
				c-10.058,0-18.285-8.075-18.439-18.167c-0.154-10.187,7.979-18.572,18.166-18.726l718.774-10.931
				c10.056-0.248,18.571,7.977,18.725,18.166c0.154,10.186-7.979,18.571-18.165,18.726l-718.774,10.931
				C1635.257,1981.616,1635.161,1981.616,1635.065,1981.616z"/>
			
				<linearGradient id="SVGID_00000152224387758034244770000010884249350855788717_" gradientUnits="userSpaceOnUse" x1="1974.9385" y1="1633.9139" x2="1871.3779" y2="1504.4631" gradientTransform="matrix(1 0 0 1 129.3117 0)">
				<stop  offset="0.0036" style="stop-color:#E38DDD"/>
				<stop  offset="1" style="stop-color:#9571F6"/>
			</linearGradient>
			<path style="fill:url(#SVGID_00000152224387758034244770000010884249350855788717_);" d="M1640.931,1287.574v379.281
				c0,35.054,30.67,45.661,49.491,45.653l562.235-10.497c19.655-0.021,35.1-15.941,34.603-35.71l10.901-404.67
				c-0.493-19.556-42.437-88.173-118.597-80.795l-435.596-0.016C1686.887,1180.818,1640.931,1228.601,1640.931,1287.574z"/>
			
				<linearGradient id="SVGID_00000132064910206065359540000016336155061292040093_" gradientUnits="userSpaceOnUse" x1="1658.4106" y1="1240.6903" x2="2018.5646" y2="1668.9811" gradientTransform="matrix(1 0 0 1 129.3117 0)">
				<stop  offset="0.0036" style="stop-color:#E38DDD"/>
				<stop  offset="1" style="stop-color:#9571F6"/>
			</linearGradient>
			<path style="fill:url(#SVGID_00000132064910206065359540000016336155061292040093_);" d="M1666.711,1296.804l0.041,381.673
				c0.002,19.607,15.602,35.869,34.45,35.863l579.47-0.163c19.726-0.006,35.226-15.944,34.726-35.751l-9.576-379.1
				c-1.507-59.658-50.269-107.329-109.387-107.374l-427.99-0.323C1712.082,1191.586,1666.705,1238.663,1666.711,1296.804z"/>
			
				<linearGradient id="SVGID_00000098918662008660582880000009081262815464285342_" gradientUnits="userSpaceOnUse" x1="1890.0944" y1="1628.7805" x2="1881.1394" y2="1554.9017" gradientTransform="matrix(1 0 0 1 129.3117 0)">
				<stop  offset="0" style="stop-color:#311944"/>
				<stop  offset="1" style="stop-color:#893976"/>
			</linearGradient>
			<path style="fill:url(#SVGID_00000098918662008660582880000009081262815464285342_);" d="M1703.108,1329.891
				c-7.488-0.075-13.608-6.38-13.725-14.185c-0.116-7.877,5.931-14.31,13.513-14.368l555.112-4.284
				c8.058-0.139,14.906,6.519,15.052,14.704c0.145,8.184-6.362,14.859-14.526,14.906l-555.213,3.227
				C1703.251,1329.892,1703.179,1329.891,1703.108,1329.891z"/>
			<g>
				
					<linearGradient id="SVGID_00000120533854124223253430000011094711289799016856_" gradientUnits="userSpaceOnUse" x1="1475.4067" y1="2008.26" x2="1631.2157" y2="2203.6812" gradientTransform="matrix(1 0 0 1 129.3117 0)">
					<stop  offset="0" style="stop-color:#311944"/>
					<stop  offset="1" style="stop-color:#893976"/>
				</linearGradient>
				<path style="fill:url(#SVGID_00000120533854124223253430000011094711289799016856_);" d="M1675.209,2101.612l-12.492-140.191
					c-0.974-10.929-10.13-19.305-21.102-19.305c-10.164,0-18.896,7.218-20.807,17.201l-26.471,138.236
					c-4.022,21.004,8.824,41.559,29.466,47.149C1651.263,2152.137,1677.734,2129.949,1675.209,2101.612z M1634.691,2124.542
					c-15.282,0-27.671-12.389-27.671-27.671c0-15.283,12.389-27.671,27.671-27.671c15.283,0,27.671,12.389,27.671,27.671
					C1662.363,2112.153,1649.974,2124.542,1634.691,2124.542z"/>
				
					<linearGradient id="SVGID_00000159459564480710882790000001420760119466319025_" gradientUnits="userSpaceOnUse" x1="1587.9835" y1="2154.7583" x2="1536.0568" y2="2091.8997" gradientTransform="matrix(1 0 0 1 129.3117 0)">
					<stop  offset="0" style="stop-color:#311944"/>
					<stop  offset="1" style="stop-color:#893976"/>
				</linearGradient>
				<path style="fill:url(#SVGID_00000159459564480710882790000001420760119466319025_);" d="M1667.693,2101.612l-12.492-140.191
					c-0.974-10.929-10.13-19.305-21.102-19.305c-10.164,0-18.896,7.218-20.807,17.201l-26.471,138.236
					c-4.022,21.004,8.824,41.559,29.466,47.149C1643.747,2152.137,1670.218,2129.949,1667.693,2101.612z M1627.176,2124.542
					c-15.282,0-27.671-12.389-27.671-27.671c0-15.283,12.389-27.671,27.671-27.671c15.283,0,27.671,12.389,27.671,27.671
					C1654.847,2112.153,1642.458,2124.542,1627.176,2124.542z"/>
			</g>
		</g>
		<g>
			
				<linearGradient id="SVGID_00000111192295359952220640000000133708318072670129_" gradientUnits="userSpaceOnUse" x1="1767.4818" y1="2012.0211" x2="1431.4016" y2="1660.0886" gradientTransform="matrix(-1 0 0 1 4507.5825 0)">
				<stop  offset="0" style="stop-color:#311944"/>
				<stop  offset="1" style="stop-color:#A03976"/>
			</linearGradient>
			<path style="fill:url(#SVGID_00000111192295359952220640000000133708318072670129_);" d="M3048.21,1712.45
				c-4.189-4.553-9.928-12.226-12.271-22.891c-5.025-22.875,7.917-48.841,17.496-48.651c8.669,0.173,14.854,21.764,16.715,30.993
				c4.059,20.134-1.228,37.189-4.778,46.051L3048.21,1712.45z"/>
			
				<linearGradient id="SVGID_00000023252640695343495250000008252533267711461055_" gradientUnits="userSpaceOnUse" x1="1960.7813" y1="1827.4304" x2="1624.7004" y2="1475.4972" gradientTransform="matrix(-1 0 0 1 4507.5825 0)">
				<stop  offset="0" style="stop-color:#311944"/>
				<stop  offset="1" style="stop-color:#A03976"/>
			</linearGradient>
			<path style="fill:url(#SVGID_00000023252640695343495250000008252533267711461055_);" d="M2712.424,1692.216
				c3.24-4.425,7.539-11.752,8.549-21.38c2.167-20.649-11.799-42.246-20.22-41.132c-7.62,1.008-10.936,20.641-11.664,28.956
				c-1.586,18.139,4.756,32.641,8.76,40.098L2712.424,1692.216z"/>
			<g>
				
					<linearGradient id="SVGID_00000073705113540341411130000010638120987092731537_" gradientUnits="userSpaceOnUse" x1="1510.1724" y1="2578.4653" x2="1308.9473" y2="2680.7686" gradientTransform="matrix(-1 0 0 1 4507.5825 0)">
					<stop  offset="0.0036" style="stop-color:#E38DDD"/>
					<stop  offset="1" style="stop-color:#9571F6"/>
				</linearGradient>
				<path style="fill:url(#SVGID_00000073705113540341411130000010638120987092731537_);" d="M3037.529,2607.631
					c0,0,5.951-12.793,12.857-12.236c6.906,0.559,14.183,1.191,30.326,11.815c16.143,10.625,23.888,12.26,23.12,19.074
					C3103.066,2633.098,3052.111,2631.746,3037.529,2607.631z"/>
				
					<linearGradient id="SVGID_00000141454002028522733130000013089108530662104213_" gradientUnits="userSpaceOnUse" x1="-9026.9453" y1="2118.8811" x2="-9022.3809" y2="2178.22" gradientTransform="matrix(0.3082 -0.9513 0.9513 0.3082 3767.3823 -6628.4365)">
					<stop  offset="0" style="stop-color:#311944"/>
					<stop  offset="1" style="stop-color:#A03976"/>
				</linearGradient>
				<path style="fill:url(#SVGID_00000141454002028522733130000013089108530662104213_);" d="M3018.491,2615.925
					c1.287-0.409,15.018-8.582,22.826-13.26c3.185-1.907,7.232-1.471,9.953,1.053l0,0c3.983,3.697,4.373,9.846,0.893,14.02
					c-5.857,7.021-14.707,17.254-21.065,22.907L3018.491,2615.925z"/>
				
					<linearGradient id="SVGID_00000155863653983433704020000007790305825341190827_" gradientUnits="userSpaceOnUse" x1="1553.651" y1="2860.2622" x2="1749.8037" y2="3116.4448" gradientTransform="matrix(-1 0 0 1 4507.5825 0)">
					<stop  offset="0.0036" style="stop-color:#E38DDD"/>
					<stop  offset="1" style="stop-color:#9571F6"/>
				</linearGradient>
				<path style="fill:url(#SVGID_00000155863653983433704020000007790305825341190827_);" d="M2906.808,2952.778
					c-0.032,0.29,0.041,0.921,0.126,1.813c0.384,3.989,1.021,13.179-6.369,20.24c-9.042,8.636-31.883,10.63-59.342,12.004
					c-27.458,1.374-5.647-16.333-1.749-18.342c3.898-2.009,57.558-25.66,57.558-25.66L2906.808,2952.778z"/>
				
					<linearGradient id="SVGID_00000123421796235937568370000005236585075632880531_" gradientUnits="userSpaceOnUse" x1="-4687.2593" y1="3246.3142" x2="-4710.8857" y2="3355.5862" gradientTransform="matrix(0.4133 0.9106 -0.9106 0.4133 7932.4243 5838.626)">
					<stop  offset="0" style="stop-color:#311944"/>
					<stop  offset="1" style="stop-color:#A03976"/>
				</linearGradient>
				<path style="fill:url(#SVGID_00000123421796235937568370000005236585075632880531_);" d="M2886.131,2927.976l4.491,31.806
					c0,0,6.478,3.824,11.274-5.118l12.051-22.458L2886.131,2927.976z"/>
				<g>
					
						<linearGradient id="SVGID_00000138535669498965821670000018070014531270974910_" gradientUnits="userSpaceOnUse" x1="1733.7563" y1="2288.4111" x2="1644.9805" y2="2747.5103" gradientTransform="matrix(-1 0 0 1 4507.5825 0)">
						<stop  offset="0" style="stop-color:#311944"/>
						<stop  offset="1" style="stop-color:#A03976"/>
					</linearGradient>
					<path style="fill:url(#SVGID_00000138535669498965821670000018070014531270974910_);" d="M2778.206,2308.348
						c-37.57-2.332-53.183,39.798-74.417,76.698c-41.804,72.641-103.569,228.14-44.463,307.225
						c49.755,66.573,194.883,34.455,237.473,20.593c89.343-29.077,85.707-38.15,148.103-77.949
						c-10.953-8.695-14.35-19.429-23.467-28.879c-22.333-2.157-64.323-2.847-83.61-3.221c-28.528-0.552-79.392,1.739-94.856,2.945
						c-24.489,1.911-71.217,14.13-79.359,3.254c-17.999-24.047,33.43-146.338,34.245-186.257
						C2798.197,2406.025,2812.51,2310.476,2778.206,2308.348z"/>
					
						<linearGradient id="SVGID_00000150096496722534588500000010974251420376358843_" gradientUnits="userSpaceOnUse" x1="-7544.7153" y1="4342.7329" x2="-7262.5879" y2="4565.9551" gradientTransform="matrix(0.9513 0.3082 -0.3082 0.9513 11111.3906 419.9144)">
						<stop  offset="0" style="stop-color:#311944"/>
						<stop  offset="1" style="stop-color:#A03976"/>
					</linearGradient>
					<path style="opacity:0.3;fill:url(#SVGID_00000150096496722534588500000010974251420376358843_);" d="M2704.469,2383.267
						c-9.811,15.204-19.574,40.688-27.476,58.104c7.844,5.299,18.819,11.504,21.625,20.35
						c12.901,40.659-14.868,77.318-12.102,128.375c0.707,13.059,6.038,60.038,31.061,71.569
						c29.901,13.777,87.688-6.547,127.152-1.565c20.474,2.585,39.995,17.088,60.962,14.735
						c33.104-3.717,54.261-27.809,87.804-32.613c8.865-1.27,24.44,1.945,33.75,5.681c5.711-4.016,10.735-8.216,16.067-12.494
						c-7.415-9.794-13.739-19.62-21.825-29.388c-22.432-2.141-64.371-2.815-83.658-3.208c-28.527-0.582-79.42,1.803-94.856,2.938
						c-24.444,1.8-71.305,14.338-79.362,3.259c-17.812-24.493,33.094-145.546,34.382-186.581
						c0.539-17.201,13.368-109.239-19.47-114.834C2742.56,2301.465,2721.104,2357.488,2704.469,2383.267z"/>
				</g>
				<g>
					
						<linearGradient id="SVGID_00000081621702287975641480000007998090331968233363_" gradientUnits="userSpaceOnUse" x1="1538.6356" y1="2266.8232" x2="1612.3478" y2="2497.7883" gradientTransform="matrix(-1 0 0 1 4507.5825 0)">
						<stop  offset="0" style="stop-color:#311944"/>
						<stop  offset="1" style="stop-color:#A03976"/>
					</linearGradient>
					<path style="fill:url(#SVGID_00000081621702287975641480000007998090331968233363_);" d="M2758.359,2410.077
						c-3.961,67.032,37.453,159.61,32.305,236.947c-0.585,8.809,2.624,45.862,6.132,56.305
						c11.363,33.823,78.719,233.852,80.436,235.78c12.526-2.593,25.544-4.176,38.28-6.925
						c16.682-30.368,30.132-72.646,37.808-104.887c10.335-43.407-10.653-94.292-15.546-123.196
						c-5.634-33.276-5.169-87.575-8.555-98.937c-25.15-84.353,6.149-116.403-5.783-185.417
						c-6.184-35.762-28.988-53.231-54.998-74.656C2831.54,2382.371,2789.807,2368.877,2758.359,2410.077z"/>
				</g>
				<g>
					
						<linearGradient id="SVGID_00000064339977257060662580000012702186110203424946_" gradientUnits="userSpaceOnUse" x1="1842.6923" y1="2731.6489" x2="1272.0022" y2="1481.4601" gradientTransform="matrix(-1 0 0 1 4507.5825 0)">
						<stop  offset="0" style="stop-color:#AA80F9"/>
						<stop  offset="0.9964" style="stop-color:#6165D7"/>
					</linearGradient>
					<path style="fill:url(#SVGID_00000064339977257060662580000012702186110203424946_);" d="M3032.275,1706.009
						c-2.476,22.324-6.684,54.569-14.014,93.059c-18.214,95.641-27.322,143.461-55.852,186.443
						c-46.227,69.642-97.929,68.2-100.611,112.093c-2.465,40.349,41.868,87.474,92.58,95.602
						c26.896,4.311,49.295-3.393,60.996-8.525c7.452-27.138,16.889-64.011,26.111-108.119
						c8.822-42.199,25.811-113.094,30.545-206.638c3.076-60.788,3.708-112.171,3.596-150.275
						C3063.292,1714.007,3046.438,1709.333,3032.275,1706.009z"/>
				</g>
				<g>
					
						<linearGradient id="SVGID_00000092448681395424983830000005122205447385899421_" gradientUnits="userSpaceOnUse" x1="2108.9829" y1="2644.657" x2="1520.3534" y2="1355.1689" gradientTransform="matrix(-1 0 0 1 4507.5825 0)">
						<stop  offset="0" style="stop-color:#AA80F9"/>
						<stop  offset="0.9964" style="stop-color:#6165D7"/>
					</linearGradient>
					<path style="fill:url(#SVGID_00000092448681395424983830000005122205447385899421_);" d="M2725.909,1692.88
						c-4.506,22.708-9.435,54.83-10.516,93.519c-1.018,36.405-2.405,108.873,26.485,191.563
						c26.533,75.944,55.304,93.82,47.494,137.271c-6.86,38.162-36.399,65.247-61.225,82.533
						c-14.398-29.463-31.438-68.202-47.145-114.963c-7.219-21.493-19.176-57.493-28.747-105.686
						c-9.618-48.422-17.428-87.744-14.081-136.606c2.171-31.703,10.203-84.441,42.331-145.657
						C2693.881,1692.588,2711.367,1692.43,2725.909,1692.88z"/>
				</g>
				
					<linearGradient id="SVGID_00000080901555213148568310000003150461251436404394_" gradientUnits="userSpaceOnUse" x1="1890.0013" y1="2719.2244" x2="1314.9468" y2="1459.4744" gradientTransform="matrix(-1 0 0 1 4507.5825 0)">
					<stop  offset="0" style="stop-color:#AA80F9"/>
					<stop  offset="0.9964" style="stop-color:#6165D7"/>
				</linearGradient>
				<path style="fill:url(#SVGID_00000080901555213148568310000003150461251436404394_);" d="M2720.357,2261.767
					c-12.835,55.753-27.492,80.993-18.32,119.788c7.57,32.024,46.178,47.559,85.92,63.551
					c26.558,10.688,108.698,43.74,156.467,6.573c20.104-15.642,22.305-34.529,36.648-103.948
					c36.44-176.376,50.556-191.528,35.231-229.71c-23.706-59.06-83.232-86.952-103.384-95.21c-2.161-0.886-3.902-1.564-5.129-2.03
					c-51.248-19.469-146.285-29.481-184.513,10.444C2681.761,2074.584,2750.249,2131.917,2720.357,2261.767z"/>
				
					<linearGradient id="SVGID_00000103956848120509909040000012900448363235473806_" gradientUnits="userSpaceOnUse" x1="-9688.6611" y1="1064.2604" x2="-9790.2021" y2="806.3649" gradientTransform="matrix(0.9842 0.1772 -0.1772 0.9842 12619.0088 2787.666)">
					<stop  offset="0" style="stop-color:#311944"/>
					<stop  offset="1" style="stop-color:#6B3976"/>
				</linearGradient>
				<path style="fill:url(#SVGID_00000103956848120509909040000012900448363235473806_);" d="M2769.577,1900.612
					c-2.19-11.453-10.624-11.77-12.433-22.38c-2.271-13.311,8.197-29.235,21.137-36.057c12.666-6.68,18.384,0.273,46.004,0
					c29.67-0.292,34.28-8.431,58.438-4.974c6.308,0.903,18.072,2.695,31.083,9.947c10.375,5.78,30.951,17.248,33.571,38.545
					c2.863,23.28-17.895,40.653-19.895,42.274c7.851,27.02,4.505,38.476-1.242,43.519c0,0-6.101,5.352-37.3,4.973l0,0
					c0,0-8.809,10.944-13.933,14.598c-5.831,4.156-17.169,6.2-41.605-5.415c-0.432-5.243-1.303-12.723-3.233-21.552
					c-3.623-16.568-5.435-24.856-10.029-26.422c-11.574-3.949-27.033,36.519-42.682,33.541
					c-10.062-1.913-17.897-21.351-16.584-37.026C2762.187,1918.5,2772.063,1913.625,2769.577,1900.612z"/>
				
					<linearGradient id="SVGID_00000178182591780206378200000008213908077543898038_" gradientUnits="userSpaceOnUse" x1="-7115.4424" y1="2393.3777" x2="-7140.9316" y2="2610.7085" gradientTransform="matrix(0.9939 0.1103 -0.1103 0.9939 10218.499 263.1535)">
					<stop  offset="0" style="stop-color:#311944"/>
					<stop  offset="1" style="stop-color:#A03976"/>
				</linearGradient>
				<path style="fill:url(#SVGID_00000178182591780206378200000008213908077543898038_);" d="M2819.046,1994.368
					c2.019,11.971-6.3,23.255-18.344,24.784c-14.588,1.852-32.422,4.67-40.37,8.117c-14.591,6.328,41.922,3.42,93.111,7.89
					c31.957,2.791,56.172,1.856,69.857,0.761c3.674-0.295,4.509-5.285,1.153-6.804c-12.298-5.567-32.361-13.981-49.646-18.129
					c-21.4-5.137-39.358-55.611-39.358-55.611l-20.475,14.831L2819.046,1994.368z"/>
				
					<linearGradient id="SVGID_00000150786225709987217040000003314272173597876610_" gradientUnits="userSpaceOnUse" x1="-7949.9727" y1="5527.1841" x2="-7990.5107" y2="5628.5293" gradientTransform="matrix(0.7805 0.6252 -0.6252 0.7805 12620.9297 2519.6465)">
					<stop  offset="0" style="stop-color:#311944"/>
					<stop  offset="1" style="stop-color:#A03976"/>
				</linearGradient>
				<path style="fill:url(#SVGID_00000150786225709987217040000003314272173597876610_);" d="M2853.46,1979.911
					c0,0-24.966,28.359-63.083,19.058c-34.129-8.331-25.547-86.642-0.6-99.189c8.321-4.185,23.456-3.865,34.845,1.603
					c6.727,3.229,8.604,6.592,19.698,11.656c10.232,4.669,13.473,4.014,16.228,7.309c3.45,4.12,4.943,12.996-5.803,34.439
					c7.76-5.51,16.119-6.676,21.253-3.045c0.82,0.58,2.907,2.61,3.809,5.288C2883.075,1966.725,2873.011,1976.596,2853.46,1979.911z
					"/>
				
					<linearGradient id="SVGID_00000079463636023779171920000004453614420443433359_" gradientUnits="userSpaceOnUse" x1="1941.12" y1="2958.3464" x2="935.7847" y2="755.9973" gradientTransform="matrix(-1 0 0 1 4507.5825 0)">
					<stop  offset="0.0036" style="stop-color:#E38DDD"/>
					<stop  offset="1" style="stop-color:#9571F6"/>
				</linearGradient>
				<path style="opacity:0.45;fill:url(#SVGID_00000079463636023779171920000004453614420443433359_);" d="M2763.648,2344.797
					c60.47,6.72,102.985-50.771,106.183-55.235c31.275-43.66,8.419-69.231,34.802-126.44c25.82-55.986,52.735-42.397,88.354-100.084
					c49.614-80.356,47.494-187.88,47.347-192.876c-0.48-16.242-2.76-48.857,11.414-87.508c7.408-20.204,16.922-35.536,23.871-45.406
					c-0.122,35.776-0.963,80.782-3.59,132.677c-4.734,93.544-21.723,164.439-30.545,206.637
					c-6.92,33.098-13.961,62.123-20.193,86.016c-3.901,29.386-17.853,76.899-40.219,185.154
					c-14.343,69.419-16.545,88.306-36.648,103.948c-47.77,37.167-129.91,4.115-156.467-6.573
					c-39.742-15.992-78.35-31.528-85.92-63.551c-5.489-23.219-2.419-41.618,3.663-64.573
					C2715.563,2326.069,2735.602,2341.679,2763.648,2344.797z"/>
			</g>
		</g>
		<g>
			
				<linearGradient id="SVGID_00000146484080833696703480000014235705193860445318_" gradientUnits="userSpaceOnUse" x1="564.4702" y1="2568.7876" x2="1855" y2="2568.7876">
				<stop  offset="0" style="stop-color:#444B8C"/>
				<stop  offset="0.9964" style="stop-color:#26264F"/>
			</linearGradient>
			<polygon style="fill:url(#SVGID_00000146484080833696703480000014235705193860445318_);" points="1855,2643.303 564.47,2819.439 
				564.47,2459.888 1855,2318.136 			"/>
			
				<linearGradient id="SVGID_00000157273069002191487160000008459604567552461473_" gradientUnits="userSpaceOnUse" x1="1855" y1="2624.4758" x2="2513.8494" y2="2624.4758">
				<stop  offset="0" style="stop-color:#444B8C"/>
				<stop  offset="0.9964" style="stop-color:#26264F"/>
			</linearGradient>
			<polygon style="fill:url(#SVGID_00000157273069002191487160000008459604567552461473_);" points="2513.849,2930.816 
				1855,2678.826 1855,2318.136 2513.849,2520.748 			"/>
			<g>
				
					<linearGradient id="SVGID_00000098205471163151285820000017174400605180196798_" gradientUnits="userSpaceOnUse" x1="1219.9235" y1="2797.9233" x2="2547.8108" y2="2797.9233">
					<stop  offset="0" style="stop-color:#AA80F9"/>
					<stop  offset="0.9964" style="stop-color:#6165D7"/>
				</linearGradient>
				<polygon style="fill:url(#SVGID_00000098205471163151285820000017174400605180196798_);" points="2547.811,2523.279 
					2547.811,2930.816 1219.923,3072.568 1219.923,2662.5 2533.733,2524.62 				"/>
				
					<linearGradient id="SVGID_00000071521011187932857170000006310523845534681223_" gradientUnits="userSpaceOnUse" x1="550.4546" y1="2766.2317" x2="1219.9235" y2="2766.2317">
					<stop  offset="0" style="stop-color:#AA80F9"/>
					<stop  offset="0.9964" style="stop-color:#6165D7"/>
				</linearGradient>
				<polygon style="fill:url(#SVGID_00000071521011187932857170000006310523845534681223_);" points="1219.923,2662.5 
					1219.923,3072.568 563.309,2820.579 550.455,2459.896 578.12,2464.705 				"/>
				
					<linearGradient id="SVGID_00000183944696160931218350000013825298442296207807_" gradientUnits="userSpaceOnUse" x1="550.4106" y1="2766.2317" x2="1221.6667" y2="2766.2317">
					<stop  offset="0" style="stop-color:#AA80F9"/>
					<stop  offset="0.9964" style="stop-color:#6165D7"/>
				</linearGradient>
				<path style="opacity:0.3;fill:url(#SVGID_00000183944696160931218350000013825298442296207807_);" d="M1221.667,3072.568
					l-658.446-251.989l-12.81-360.683l28.716,4.809c-1.646,39.868,8.231,114.009,92.573,159.775
					c119.806,65.028,215.917-0.785,281.73,166.28C1019.242,2957.824,1186.229,2878.494,1221.667,3072.568z"/>
				
					<linearGradient id="SVGID_00000168816830857261238390000014654177332164958083_" gradientUnits="userSpaceOnUse" x1="1222.4052" y1="2797.9233" x2="2547.8108" y2="2797.9233">
					<stop  offset="0" style="stop-color:#AA80F9"/>
					<stop  offset="0.9964" style="stop-color:#6165D7"/>
				</linearGradient>
				<path style="opacity:0.3;fill:url(#SVGID_00000168816830857261238390000014654177332164958083_);" d="M2547.811,2523.279
					v407.537l-1325.406,141.752c4.495-0.304,31.175-59.029,36.996-66.523c12.991-16.655,28.41-29.792,47.713-39.108
					c73.449-35.438,162.726-25.288,241.059-39.843c120.163-22.325,210.867-118.058,336.043-130.234
					c81.139-7.873,162.709,8.454,243.744,0.86c149.288-14.023,208.05-163.014,326.343-233.535
					c4.053-2.43,49.287-24.529,80.49-39.565L2547.811,2523.279z"/>
			</g>
			<g>
				
					<linearGradient id="SVGID_00000032633964075493072380000013919283619633418131_" gradientUnits="userSpaceOnUse" x1="550.8857" y1="2490.3149" x2="2548.8367" y2="2490.3149">
					<stop  offset="0" style="stop-color:#AA80F9"/>
					<stop  offset="0.9964" style="stop-color:#6165D7"/>
				</linearGradient>
				<path style="fill:url(#SVGID_00000032633964075493072380000013919283619633418131_);" d="M1218.53,2675.519l-667.644-204.283
					v-22.975l19.28,0.362l-0.275-2.352l1285.229-141.159l693.717,218.168L1218.53,2675.519z M626.04,2465.876l594.962,183.605
					l1229.749-132.324l-598.149-185.995L626.04,2465.876z"/>
			</g>
			<g>
				
					<linearGradient id="SVGID_00000151534945617262006920000003118272547465971076_" gradientUnits="userSpaceOnUse" x1="480.0259" y1="2028.8287" x2="569.386" y2="2028.8287">
					<stop  offset="0" style="stop-color:#AA80F9"/>
					<stop  offset="0.9964" style="stop-color:#6165D7"/>
				</linearGradient>
				<polygon style="fill:url(#SVGID_00000151534945617262006920000003118272547465971076_);" points="553.383,1584.485 
					480.026,1723.317 485.818,2355.445 569.386,2473.172 				"/>
				
					<linearGradient id="SVGID_00000052796579894412325340000005104157228690511546_" gradientUnits="userSpaceOnUse" x1="569.742" y1="2026.353" x2="1854.9696" y2="2026.353">
					<stop  offset="0" style="stop-color:#444B8C"/>
					<stop  offset="0.9964" style="stop-color:#26264F"/>
				</linearGradient>
				<polygon style="fill:url(#SVGID_00000052796579894412325340000005104157228690511546_);" points="1854.97,2333.607 
					577.712,2457.595 569.742,1599.525 1846.798,1595.111 				"/>
				<g>
					
						<linearGradient id="SVGID_00000096754798972886929650000018304143264569435300_" gradientUnits="userSpaceOnUse" x1="554.7261" y1="1662.2109" x2="1845.8239" y2="1662.2109">
						<stop  offset="0" style="stop-color:#444B8C"/>
						<stop  offset="0.9964" style="stop-color:#26264F"/>
					</linearGradient>
					<polygon style="opacity:0.5;fill:url(#SVGID_00000096754798972886929650000018304143264569435300_);" points="554.726,1729.42 
						1734.906,1728.752 1845.824,1595.002 576.955,1605.15 					"/>
					
						<linearGradient id="SVGID_00000133494931442413568430000009543502802775385226_" gradientUnits="userSpaceOnUse" x1="1720.0092" y1="1959.2205" x2="1848.4259" y2="1959.2205">
						<stop  offset="0" style="stop-color:#444B8C"/>
						<stop  offset="0.9964" style="stop-color:#26264F"/>
					</linearGradient>
					<polygon style="fill:url(#SVGID_00000133494931442413568430000009543502802775385226_);" points="1734.906,1728.752 
						1720.009,2254.311 1848.426,2323.439 1845.824,1595.002 					"/>
					
						<linearGradient id="SVGID_00000163069821405576670110000000420198378310142368_" gradientUnits="userSpaceOnUse" x1="842.0352" y1="1706.4712" x2="1135.0697" y2="2242.6157">
						<stop  offset="0" style="stop-color:#444B8C"/>
						<stop  offset="0.9964" style="stop-color:#26264F"/>
					</linearGradient>
					<polygon style="fill:url(#SVGID_00000163069821405576670110000000420198378310142368_);" points="1720.009,2254.311 
						566.108,2358.344 576.149,2444.352 1848.426,2323.439 					"/>
				</g>
				<g>
					
						<linearGradient id="SVGID_00000103965806939740875290000015918107596858122385_" gradientUnits="userSpaceOnUse" x1="553.9326" y1="2028.0128" x2="1863.621" y2="2028.0128">
						<stop  offset="0" style="stop-color:#AA80F9"/>
						<stop  offset="0.9964" style="stop-color:#6165D7"/>
					</linearGradient>
					<path style="fill:url(#SVGID_00000103965806939740875290000015918107596858122385_);" d="M562.175,2474.015l-8.243-889.476
						l1301.375-2.528l8.314,750.503L562.175,2474.015z M581.595,1614.092l7.697,827.125l1253.966-119.434l-7.888-713.863
						L581.595,1614.092z"/>
				</g>
			</g>
			<g>
				<g>
					<path style="fill:#AABBCC;" d="M1580.58,2780.944c0.135-9.564-7.471-16.51-17.003-15.499l-162.728,17.238
						c-9.846,1.043-17.911,9.787-17.911,19.515v129.998c0,9.535,7.971,16.297,17.701,15.117l160.811-19.5
						c9.424-1.143,17.177-9.661,17.309-19.039L1580.58,2780.944z"/>
					<path style="fill:#AABBCC;" d="M2423.718,2690.213c0.654-8.858-5.346-15.354-13.416-14.499l-137.508,14.572
						c-8.313,0.881-15.515,8.899-16.074,17.898l-7.473,120.344c-0.548,8.834,5.69,15.177,13.92,14.178l136.174-16.516
						c7.992-0.969,14.982-8.798,15.625-17.496L2423.718,2690.213z"/>
				</g>
				<g>
					<path style="fill:#D8DEE8;" d="M1593.39,2780.944c0.135-9.564-7.471-16.51-17.003-15.499l-162.341,17.238
						c-9.846,1.043-17.524,9.787-17.524,19.515v129.998c0,9.535,7.584,16.297,17.314,15.117l160.617-19.5
						c9.424-1.143,17.08-9.661,17.212-19.039L1593.39,2780.944z"/>
					<path style="fill:#D8DEE8;" d="M2436.528,2690.213c0.654-8.858-5.346-15.354-13.416-14.499l-137.508,14.572
						c-8.313,0.881-15.515,8.899-16.074,17.898l-7.473,120.344c-0.548,8.834,5.69,15.177,13.92,14.178l136.174-16.516
						c7.992-0.969,14.982-8.798,15.625-17.496L2436.528,2690.213z"/>
				</g>
				<g>
					<g>
						<path style="fill:#97A6B7;" d="M1518.293,2840.172c-0.044,3.909-2.135,7.346-6.066,7.791l-42.057,4.782
							c-3.963,0.448-6.326-2.435-6.302-6.358l0.01-1.579c0.025-3.927,2.994-7.45,6.959-7.893l41.646-4.696
							c3.935-0.439,5.872,2.467,5.827,6.38L1518.293,2840.172z"/>
						<path style="fill:#97A6B7;" d="M1517.938,2871.573c-0.044,3.892-2.09,7.304-6.013,7.759l-41.966,4.886
							c-3.954,0.459-6.314-2.413-6.289-6.319l0.01-1.572c0.025-3.909,3.009-7.425,6.965-7.878l41.525-4.791
							c3.926-0.45,5.83,2.454,5.786,6.349L1517.938,2871.573z"/>
					</g>
					<g>
						<path style="fill:#97A6B7;" d="M2379.951,2743.38c-0.253,3.615-3.147,6.847-6.465,7.222l-36.194,4.093
							c-3.345,0.378-5.862-2.257-5.62-5.888l0.097-1.461c0.242-3.633,3.155-6.883,6.503-7.257l36.228-4.043
							c3.321-0.371,5.806,2.262,5.553,5.879L2379.951,2743.38z"/>
						<path style="fill:#97A6B7;" d="M2377.915,2772.413c-0.252,3.6-3.14,6.827-6.452,7.212l-36.126,4.192
							c-3.339,0.387-5.852-2.228-5.61-5.844l0.097-1.456c0.241-3.618,3.148-6.863,6.49-7.246l36.16-4.143
							c3.315-0.38,5.796,2.234,5.543,5.836L2377.915,2772.413z"/>
					</g>
				</g>
				<path style="fill:#AABBCC;" d="M2356.507,2775.603c-1.318,19.212-16.747,36.456-34.524,38.571l-798.947,95.04
					c-20.859,2.481-37.72-12.289-37.586-33.054l0.182-28.299c0.135-20.913,17.339-39.78,38.352-42.075l804.383-87.874
					c17.887-1.954,31.261,12.182,29.935,31.519L2356.507,2775.603z"/>
				<path style="fill:#97A6B7;" d="M2366.115,2775.603c-1.318,19.212-16.748,36.456-34.524,38.571l-798.947,95.04
					c-20.858,2.481-37.719-12.289-37.586-33.054l0.182-28.299c0.135-20.913,17.339-39.78,38.352-42.075l804.383-87.874
					c17.887-1.954,31.261,12.182,29.935,31.519L2366.115,2775.603z"/>
			</g>
			<g>
				<defs>
					<polygon id="SVGID_00000025443429789899489550000007934620118571508648_" points="650.718,2473.798 1234.24,2648.504 
						2361.023,2527.094 2361.023,1623.598 637.461,1778.389 					"/>
				</defs>
				<clipPath id="SVGID_00000155864818747556835300000007408291010015158165_">
					<use xlink:href="#SVGID_00000025443429789899489550000007934620118571508648_"  style="overflow:visible;"/>
				</clipPath>
				<g style="clip-path:url(#SVGID_00000155864818747556835300000007408291010015158165_);">
					<g>
						
							<linearGradient id="SVGID_00000044136063338942022920000003610786599126502326_" gradientUnits="userSpaceOnUse" x1="4090.9377" y1="1919.3129" x2="4411.0332" y2="1919.3129" gradientTransform="matrix(-1 0 0 1 5316.7822 0)">
							<stop  offset="0" style="stop-color:#311944"/>
							<stop  offset="1" style="stop-color:#A03976"/>
						</linearGradient>
						<path style="fill:url(#SVGID_00000044136063338942022920000003610786599126502326_);" d="M919.586,2083.301
							c6.953,0,12.939-5.239,13.718-12.313l24.867-226.705l12.858,6.336c4.277,2.107,9.361,1.86,13.409-0.661
							c4.051-2.521,6.517-6.958,6.517-11.733v-6.53l9.495,4.14c2.843,1.245,6.018,1.493,9.027,0.702l206.05-54.032
							c7.38-1.936,11.797-9.487,9.863-16.868c-1.938-7.379-9.495-11.79-16.871-9.861l-201.414,52.814l-24.444-10.662
							c-4.263-1.867-9.188-1.45-13.093,1.103c-3.898,2.553-6.247,6.9-6.247,11.56v5.421l-10.628-5.234
							c-4.051-1.995-8.805-1.89-12.756,0.28c-3.949,2.168-6.593,6.126-7.088,10.606l-27.017,246.308
							c-0.832,7.585,4.646,14.408,12.229,15.24C918.574,2083.271,919.083,2083.301,919.586,2083.301z"/>
						<g>
							
								<linearGradient id="SVGID_00000091735809596017749180000013742112166780260005_" gradientUnits="userSpaceOnUse" x1="762.7896" y1="2450.3364" x2="241.8998" y2="3924.0706">
								<stop  offset="0" style="stop-color:#FF9085"/>
								<stop  offset="1" style="stop-color:#FB6FBB"/>
							</linearGradient>
							<polygon style="fill:url(#SVGID_00000091735809596017749180000013742112166780260005_);" points="897.291,2760.51 
								679.939,2683.15 679.939,1994.029 897.291,1956.666 							"/>
							
								<linearGradient id="SVGID_00000078028793819230159190000006495592892880052671_" gradientUnits="userSpaceOnUse" x1="764.2122" y1="2416.719" x2="414.9995" y2="3404.7336">
								<stop  offset="0.0036" style="stop-color:#EBEFF2"/>
								<stop  offset="1" style="stop-color:#FFFFFF"/>
							</linearGradient>
							<polygon style="fill:url(#SVGID_00000078028793819230159190000006495592892880052671_);" points="859.934,2613.712 
								710.504,2573.81 710.504,2100.86 859.934,2087.716 							"/>
						</g>
						<g>
							
								<linearGradient id="SVGID_00000150811586787633674700000005295003350426650517_" gradientUnits="userSpaceOnUse" x1="1060.6248" y1="2498.8269" x2="427.1237" y2="4291.168">
								<stop  offset="0.0036" style="stop-color:#EBEFF2"/>
								<stop  offset="1" style="stop-color:#FFFFFF"/>
							</linearGradient>
							<polygon style="fill:url(#SVGID_00000150811586787633674700000005295003350426650517_);" points="1355.769,1944.93 
								1355.769,2668.062 897.291,2760.51 897.291,1956.666 							"/>
							
								<linearGradient id="SVGID_00000142857996387652439660000009610801709949542836_" gradientUnits="userSpaceOnUse" x1="1077.2084" y1="2468.8479" x2="553.4283" y2="3950.7593">
								<stop  offset="0" style="stop-color:#FF9085"/>
								<stop  offset="1" style="stop-color:#FB6FBB"/>
							</linearGradient>
							<polygon style="fill:url(#SVGID_00000142857996387652439660000009610801709949542836_);" points="1318.411,2614.214 
								941.441,2684.953 941.441,2025.177 1318.411,2009.887 							"/>
							<g>
								
									<linearGradient id="SVGID_00000142872541123113729410000008804393364858013093_" gradientUnits="userSpaceOnUse" x1="1129.0696" y1="2347.7585" x2="1152.7412" y2="2347.7585">
									<stop  offset="0.0036" style="stop-color:#EBEFF2"/>
									<stop  offset="1" style="stop-color:#FFFFFF"/>
								</linearGradient>
								<path style="fill:url(#SVGID_00000142872541123113729410000008804393364858013093_);" d="M1152.177,2308.923
									c-0.839-2.176-2.527-3.706-4.595-4.163c-4.986-1.102-10.321,1.574-12.93,7.002c-11.839,24.632-1.167,79.239-1.167,79.239
									l7.949-1.007c-4.094-32.858,4.635-61.192,10.472-74.387C1152.915,2313.325,1153.015,2311.098,1152.177,2308.923z"/>
								
									<linearGradient id="SVGID_00000128444880238499046870000009984198719741821114_" gradientUnits="userSpaceOnUse" x1="1046.3855" y1="2475.0217" x2="1266.8141" y2="2475.0217">
									<stop  offset="0.0036" style="stop-color:#EBEFF2"/>
									<stop  offset="1" style="stop-color:#FFFFFF"/>
								</linearGradient>
								<path style="fill:url(#SVGID_00000128444880238499046870000009984198719741821114_);" d="M1264.811,2443.431
									c-2.449,17.381-5.447,37.747-10.11,57.853c-5.376,23.172-12.956,46.067-24.45,63.763
									c-18.843,29.023-37.853,17.975-81.463,25.526c-28.508,4.936-37.755-7.582-53.318-29.603
									c-17.756-25.112-40.125-46.553-47.228-80.489c-6.52-31.185,4.378-60.948,28.702-81.324h0.009
									c7.037-6.792,15.19-7.478,24.344-8.154c7.054-0.523,13.741-1.031,20.237-1.691c15.148-1.555,29.338-4.386,45.082-12.373
									c22.742-11.542,73.417-31.858,90.567-6C1268.788,2388.429,1267.898,2421.426,1264.811,2443.431z"/>
							</g>
							
								<linearGradient id="SVGID_00000177468761776282619360000015461943857141927352_" gradientUnits="userSpaceOnUse" x1="947.983" y1="2206.4478" x2="1291.2545" y2="2206.4478">
								<stop  offset="0.0036" style="stop-color:#EBEFF2"/>
								<stop  offset="1" style="stop-color:#FFFFFF"/>
							</linearGradient>
							<path style="fill:url(#SVGID_00000177468761776282619360000015461943857141927352_);" d="M967.205,2209.212
								c0,0,326.508-192.423,322.389-154.188c-4.128,38.311-34.926,52.96-12.407,97.54c22.28,44.107,22.28,25.036-30.92,63.634
								c-54.572,39.592-297.307,192.894-266.662,132.974c30.233-59.115,43.052-71.823,43.052-71.823
								S902.276,2246.685,967.205,2209.212z"/>
							
								<linearGradient id="SVGID_00000090296834953398554820000002844117304577118378_" gradientUnits="userSpaceOnUse" x1="897.2911" y1="2358.4209" x2="1355.7687" y2="2358.4209">
								<stop  offset="0" style="stop-color:#FF9085"/>
								<stop  offset="1" style="stop-color:#FB6FBB"/>
							</linearGradient>
							<path style="opacity:0.2;fill:url(#SVGID_00000090296834953398554820000002844117304577118378_);" d="M1355.769,2473.825
								v194.237l-458.478,92.448v-803.845l12.692-0.335c3.354,18.774,12.721,68.134,30.533,126.062
								c11.469,37.323,26.144,78.1,44.809,116.315c24.263,49.823,54.878,95.137,92.767,122.763
								c15.78,11.515,32.73,19.927,51.024,24.305c3.199,0.814,6.429,1.437,9.699,1.966c1.221,0.191,2.407,0.385,3.627,0.606
								c19.134,3.251,38.33,8.309,57.153,15.052c22.699,8.026,44.855,18.462,65.707,30.964c19.829,11.815,37.92,25.479,54.81,40.748
								C1333.378,2447.062,1345.58,2459.976,1355.769,2473.825z"/>
						</g>
					</g>
					<g>
						<g>
							
								<linearGradient id="SVGID_00000128444192839375881800000014694847126769259159_" gradientUnits="userSpaceOnUse" x1="1288.5184" y1="1291.9526" x2="1613.6311" y2="2769.7402">
								<stop  offset="0" style="stop-color:#FFC444"/>
								<stop  offset="0.9964" style="stop-color:#F36F56"/>
							</linearGradient>
							<path style="fill:url(#SVGID_00000128444192839375881800000014694847126769259159_);" d="M1821.533,2066.337h-556.47
								c-48.02,0-85.893,41.005-85.893,95.859v583.708c0,54.854,37.873,98.147,85.893,98.147h556.47
								c48.02,0,87.805-43.293,87.805-98.147v-583.708C1909.338,2107.342,1869.553,2066.337,1821.533,2066.337z"/>
							
								<linearGradient id="SVGID_00000147186086505419861830000003448355208407217075_" gradientUnits="userSpaceOnUse" x1="1337.3069" y1="1281.1949" x2="1662.4313" y2="2759.0349">
								<stop  offset="0" style="stop-color:#FFC444"/>
								<stop  offset="0.9964" style="stop-color:#F36F56"/>
							</linearGradient>
							<path style="fill:url(#SVGID_00000147186086505419861830000003448355208407217075_);" d="M1319.439,2844.051
								c-61.571,0-113.1-51.648-113.1-116.577v-546.765c0-64.25,51.529-114.372,113.1-114.372h556.469
								c61.924,0,108.144,49.033,108.144,114.372v546.765c0,31.132-9.988,59.837-30.198,81.896
								c-20.84,22.743-47.785,34.681-77.946,34.681H1319.439z"/>
							
								<linearGradient id="SVGID_00000111177187176401733580000000808816558567023039_" gradientUnits="userSpaceOnUse" x1="1547.355" y1="2598.6372" x2="938.1667" y2="4322.1909">
								<stop  offset="0" style="stop-color:#FFC444"/>
								<stop  offset="0.9964" style="stop-color:#F36F56"/>
							</linearGradient>
							<path style="fill:url(#SVGID_00000111177187176401733580000000808816558567023039_);" d="M1875.909,2086.714h-556.47
								c-48.02,0-85.931,42.613-85.931,93.995v546.764c0,51.382,37.911,92.804,85.931,92.804h556.47
								c48.02,0,87.767-41.422,87.767-92.804v-546.764C1963.676,2129.327,1923.929,2086.714,1875.909,2086.714z"/>
						</g>
						
							<linearGradient id="SVGID_00000009550625245280369610000004141546384112301737_" gradientUnits="userSpaceOnUse" x1="1830.7211" y1="2066.9165" x2="1730.8445" y2="2349.4937">
							<stop  offset="0" style="stop-color:#FFC444"/>
							<stop  offset="0.9964" style="stop-color:#F36F56"/>
						</linearGradient>
						<path style="fill:url(#SVGID_00000009550625245280369610000004141546384112301737_);" d="M1865.23,1976.032
							c-24.716-21.42-221.212,75.253-221.212,75.253l371.159,37.619C2015.177,2088.904,1889.947,1997.453,1865.23,1976.032z
							 M1868.115,2044.398c-11.149,0-20.186-9.037-20.186-20.185s9.037-20.185,20.186-20.185c11.146,0,20.183,9.037,20.183,20.185
							S1879.261,2044.398,1868.115,2044.398z"/>
						
							<linearGradient id="SVGID_00000128484336358386610470000001650027137269381508_" gradientUnits="userSpaceOnUse" x1="1333.4463" y1="2299.4812" x2="994.4529" y2="3258.5828">
							<stop  offset="0" style="stop-color:#24ABB5"/>
							<stop  offset="1" style="stop-color:#425F63"/>
						</linearGradient>
						<path style="fill:url(#SVGID_00000128484336358386610470000001650027137269381508_);" d="M1576.872,2033.704
							c0,0-140.501-56.848-148.298-13.182c-7.797,43.666-103.809-18.125-119.463,24.716
							c-15.654,42.842-101.337,93.099-61.791,133.88c39.546,40.782-19.773,126.466,11.534,164.364
							c31.307,37.898,107.104,138.412,107.104,138.412L1576.872,2033.704z"/>
						
							<linearGradient id="SVGID_00000068679602494020484270000017649459798338058371_" gradientUnits="userSpaceOnUse" x1="1649.4197" y1="2146.0586" x2="1473.5605" y2="2643.6104">
							<stop  offset="0" style="stop-color:#AB316D"/>
							<stop  offset="1" style="stop-color:#792D3D"/>
						</linearGradient>
						<path style="fill:url(#SVGID_00000068679602494020484270000017649459798338058371_);" d="M1326.735,2120.675
							c0,0,334.585-157.623,395.14-131.671c60.555,25.952,268.173,131.671,268.173,131.671H1326.735z"/>
						
							<linearGradient id="SVGID_00000113313244055726065370000006493668984233066156_" gradientUnits="userSpaceOnUse" x1="1261.4143" y1="2573.5288" x2="937.3629" y2="3490.3552">
							<stop  offset="0" style="stop-color:#AB316D"/>
							<stop  offset="1" style="stop-color:#792D3D"/>
						</linearGradient>
						<path style="fill:url(#SVGID_00000113313244055726065370000006493668984233066156_);" d="M1293.046,2248.016
							c0,0-0.841,1.314-2.374,3.77c-17.693,28.336-127.592,208.637-101.435,274.599c28.424,71.677,119.875,227.391,119.875,227.391
							L1293.046,2248.016z"/>
						<g>
							<g>
								
									<linearGradient id="SVGID_00000100376584956218169190000017712719423722863493_" gradientUnits="userSpaceOnUse" x1="1388.8315" y1="1292.2089" x2="1713.9335" y2="2769.947">
									<stop  offset="0" style="stop-color:#FFC444"/>
									<stop  offset="0.9964" style="stop-color:#F36F56"/>
								</linearGradient>
								<path style="fill:url(#SVGID_00000100376584956218169190000017712719423722863493_);" d="M1922.87,2066.337H1366.4
									c-48.02,0-85.346,41.005-85.346,95.859v583.708c0,54.854,37.326,98.147,85.346,98.147h556.47
									c48.02,0,84.956-43.293,84.956-98.147v-583.708C2007.826,2107.342,1970.89,2066.337,1922.87,2066.337z"/>
								
									<linearGradient id="SVGID_00000031927267178856747240000002166242348658151049_" gradientUnits="userSpaceOnUse" x1="1440.6541" y1="1280.6981" x2="1765.8037" y2="2758.6531">
									<stop  offset="0" style="stop-color:#FFC444"/>
									<stop  offset="0.9964" style="stop-color:#F36F56"/>
								</linearGradient>
								<path style="fill:url(#SVGID_00000031927267178856747240000002166242348658151049_);" d="M1420.777,2844.051
									c-61.571,0-112.554-51.648-112.554-116.577v-546.765c0-64.25,50.983-114.372,112.554-114.372h556.469
									c61.924,0,112.087,49.033,112.087,114.372v546.765c0,31.132-11.959,59.837-32.169,81.896
									c-20.84,22.743-49.756,34.681-79.918,34.681H1420.777z"/>
								
									<linearGradient id="SVGID_00000080910538469688115130000014700930626306694334_" gradientUnits="userSpaceOnUse" x1="1647.7966" y1="2598.3398" x2="1038.6853" y2="4321.6763">
									<stop  offset="0" style="stop-color:#FFC444"/>
									<stop  offset="0.9964" style="stop-color:#F36F56"/>
								</linearGradient>
								<path style="fill:url(#SVGID_00000080910538469688115130000014700930626306694334_);" d="M1977.246,2086.714h-556.47
									c-48.02,0-85.384,42.613-85.384,93.995v546.764c0,51.382,37.364,92.804,85.384,92.804h556.47
									c48.02,0,84.918-41.422,84.918-92.804v-546.764C2062.164,2129.327,2025.266,2086.714,1977.246,2086.714z"/>
							</g>
							<g style="opacity:0.4;">
								
									<linearGradient id="SVGID_00000121982553654511018630000002609176043552385426_" gradientUnits="userSpaceOnUse" x1="1416.6478" y1="2179.7698" x2="1380.1155" y2="2283.1296">
									<stop  offset="0" style="stop-color:#FFC444"/>
									<stop  offset="0.9964" style="stop-color:#F36F56"/>
								</linearGradient>
								
									<circle style="fill:url(#SVGID_00000121982553654511018630000002609176043552385426_);" cx="1419.717" cy="2171.086" r="26.57"/>
								
									<linearGradient id="SVGID_00000101068490797527702990000004060751586591312788_" gradientUnits="userSpaceOnUse" x1="1483.8348" y1="2202.075" x2="1460.0463" y2="2269.3789">
									<stop  offset="0" style="stop-color:#FFC444"/>
									<stop  offset="0.9964" style="stop-color:#F36F56"/>
								</linearGradient>
								
									<circle style="fill:url(#SVGID_00000101068490797527702990000004060751586591312788_);" cx="1485.833" cy="2196.42" r="17.302"/>
								
									<linearGradient id="SVGID_00000172408168081411846380000008742286280179318695_" gradientUnits="userSpaceOnUse" x1="1404.8973" y1="2252.3577" x2="1386.6312" y2="2304.0374">
									<stop  offset="0" style="stop-color:#FFC444"/>
									<stop  offset="0.9964" style="stop-color:#F36F56"/>
								</linearGradient>
								
									<circle style="fill:url(#SVGID_00000172408168081411846380000008742286280179318695_);" cx="1406.432" cy="2248.016" r="13.285"/>
							</g>
						</g>
					</g>
					<g>
						
							<linearGradient id="SVGID_00000033367031140049137720000010466876086506541956_" gradientUnits="userSpaceOnUse" x1="4394.6187" y1="2131.0122" x2="4468.165" y2="2131.0122" gradientTransform="matrix(0.9477 0.3193 -0.3193 0.9477 -1495.3003 -1296.1896)">
							<stop  offset="0" style="stop-color:#311944"/>
							<stop  offset="1" style="stop-color:#893976"/>
						</linearGradient>
						<path style="fill:url(#SVGID_00000033367031140049137720000010466876086506541956_);" d="M2089.471,2053.344
							c-0.51-6.691-4.015-12.795-9.537-16.607c-13.291-9.176-30.789-9.15-42.918,1.514
							c-54.865,48.237-71.968,202.269-71.968,202.269l23.374,7.875c17.605-92.073,66.32-151.659,94.49-178.235
							C2087.791,2065.556,2089.981,2060.036,2089.471,2053.344z"/>
						
							<linearGradient id="SVGID_00000008852487335424753660000003888560599383367061_" gradientUnits="userSpaceOnUse" x1="4143.7993" y1="2497.5261" x2="4834.2705" y2="2497.5261" gradientTransform="matrix(0.9477 0.3193 -0.3193 0.9477 -1495.3003 -1296.1896)">
							<stop  offset="0" style="stop-color:#FF9085"/>
							<stop  offset="1" style="stop-color:#FB6FBB"/>
						</linearGradient>
						<path style="fill:url(#SVGID_00000008852487335424753660000003888560599383367061_);" d="M2300.72,2557.864
							c-22.851,42.578-49.979,92.221-81.776,138.672c-36.565,53.406-79.27,102.68-128.645,132.278
							c-80.38,48.208-125.321-8.763-255.542-52.64c-83.718-28.208-98.462-73.415-122.317-151.501
							c-27.023-88.384-68.981-174.316-59.298-269.434c8.89-87.131,66.613-156.813,148.077-169.918l0.025,0.008
							c22.205,0.723,47.906,1.909,73.92,12.013c20.123,7.812,39.034,15.907,57.832,22.688
							c44.071,15.853,86.707,27.609,138.709,27.786c75.794,0.246,242.743,15.233,270.966,107.005
							C2361.906,2417.324,2329.651,2503.865,2300.72,2557.864z"/>
						
							<linearGradient id="SVGID_00000146490931851108346990000006913236657404610193_" gradientUnits="userSpaceOnUse" x1="4143.7993" y1="2526.74" x2="4794.4463" y2="2526.74" gradientTransform="matrix(0.9477 0.3193 -0.3193 0.9477 -1495.3003 -1296.1896)">
							<stop  offset="0" style="stop-color:#FF9085"/>
							<stop  offset="1" style="stop-color:#FB6FBB"/>
						</linearGradient>
						<path style="opacity:0.3;fill:url(#SVGID_00000146490931851108346990000006913236657404610193_);" d="M2218.944,2696.536
							c-36.565,53.406-79.27,102.68-128.645,132.278c-80.38,48.208-125.321-8.763-255.542-52.64
							c-83.718-28.208-98.462-73.415-122.317-151.501c-27.023-88.384-68.981-174.316-59.298-269.434
							c8.89-87.131,66.613-156.813,148.077-169.918l0.025,0.008c0,0-157.443,185.139-16.945,281.279
							c140.497,96.139,91.682,278.259,255.151,248.288C2112.623,2701.486,2174.823,2693.326,2218.944,2696.536z"/>
						<path style="opacity:0.5;fill:#FFFFFF;" d="M2225.385,2320.309c0,0-118.06-63.418-110.937,39.584
							c7.123,103.002,80.602,224.245,136.587,173.952S2290.141,2368.127,2225.385,2320.309z"/>
					</g>
				</g>
			</g>
		</g>
		<g>
			
				<linearGradient id="SVGID_00000045615600895185671660000009592110453586005157_" gradientUnits="userSpaceOnUse" x1="844.7517" y1="1019.1774" x2="1107.4045" y2="1441.4541" gradientTransform="matrix(1 0 0 1 1867.1082 0)">
				<stop  offset="0" style="stop-color:#311944"/>
				<stop  offset="1" style="stop-color:#893976"/>
			</linearGradient>
			<path style="fill:url(#SVGID_00000045615600895185671660000009592110453586005157_);" d="M3196.103,1119.791v294.079
				c0,42.539-35.561,76.912-79.655,76.718l-163.75-0.661l-21.625-0.078l-76.409,93.633c-5.795,4.509-19.676,4.705-24.343-0.934
				l-11.335-14.971l-59.289-78.429l-5.479-0.038l-149.739-0.583c-16.098-0.08-29.881-5.912-41.429-15.671
				c-15.282-12.831-24.089-32.469-24.089-54.438v-266.745c0-38.573,29.066-71.624,66.473-73.84l31.758-1.906l480.095-28.425
				c12.054-0.699,22.802,1.206,33.108,5.212C3177.732,1063.369,3196.103,1088.877,3196.103,1119.791z"/>
			
				<linearGradient id="SVGID_00000073714173218325515400000010331623342953692321_" gradientUnits="userSpaceOnUse" x1="2700.1677" y1="1012.76" x2="2961.6824" y2="1433.2063">
				<stop  offset="0" style="stop-color:#FF9085"/>
				<stop  offset="1" style="stop-color:#FB6FBB"/>
			</linearGradient>
			<path style="fill:url(#SVGID_00000073714173218325515400000010331623342953692321_);" d="M3182.887,1112.194v293.29
				c0,42.418-35.965,76.719-79.774,76.583l-17.338-0.034l-136.94-0.272l-30.399-0.068l-75.991,89.284
				c-5.502,6.453-15.293,6.385-20.657-0.102l-2.774-3.294l-64.791-78.484l-6.451-7.811l-154.42-0.339
				c-11.309-0.034-21.328-2.955-30.667-8.083c-21.362-11.683-35.251-34.98-35.251-61.742v-266.053
				c0-35.591,24.995-66.462,58.176-72.711c2.718-0.543,5.468-0.883,8.32-1.053l36.423-2.208l472.903-28.833
				c17.865-1.087,34.332,3.634,47.677,12.464C3170.327,1065.497,3182.887,1087.096,3182.887,1112.194z"/>
			<g>
				<path style="fill:#FFFFFF;" d="M2677.472,1199.539L2677.472,1199.539c11.726-33.434,41.019-57.434,75.632-57.85
					c45.706-0.55,83.236,40.146,83.236,90.904c0-50.757,37.966-92.361,85.411-92.931c36.846-0.443,68.669,23.938,81.574,58.871
					l0.001,0c49.459,126.077-166.987,236.697-166.987,236.697S2633.342,1318.062,2677.472,1199.539z"/>
			</g>
			
				<linearGradient id="SVGID_00000048473455183954186180000009564861969374656162_" gradientUnits="userSpaceOnUse" x1="2580.7087" y1="1086.4901" x2="2833.4287" y2="1492.7971">
				<stop  offset="0" style="stop-color:#FF9085"/>
				<stop  offset="1" style="stop-color:#FB6FBB"/>
			</linearGradient>
			<path style="opacity:0.3;fill:url(#SVGID_00000048473455183954186180000009564861969374656162_);" d="M3086.166,1482.032
				l-137.135-0.272l-30.497-0.068l-76.04,89.284c-5.502,6.453-15.317,6.385-20.682-0.102l-2.786-3.294l-64.797-78.484l-6.454-7.811
				l-154.421-0.339c-11.31-0.034-21.329-2.955-30.668-8.083c-21.362-11.683-35.251-34.98-35.251-61.742v-266.053
				c0-35.591,24.995-66.462,58.176-72.711c17.49,89.862,59.841,195.889,162.607,195.889
				C2895.404,1268.246,3050.914,1361.504,3086.166,1482.032z"/>
		</g>
	</g>
</g>
</svg>
